<?xml version="1.0" encoding="UTF-8"?>
<svg width="80px" height="32px" viewBox="0 0 80 32" version="1.1" xmlns="http://www.w3.org/2000/svg" xmlns:xlink="http://www.w3.org/1999/xlink">
    <!-- Generator: Sketch 46.2 (44496) - http://www.bohemiancoding.com/sketch -->
    <title>Slice</title>
    <desc>Created with Sketch.</desc>
    <defs>
        <polygon id="path-1" points="39.8758889 0.16937931 0 0.16937931 0 31.4482207 39.8758889 31.4482207"></polygon>
    </defs>
    <g id="ERP" stroke="none" stroke-width="1" fill="none" fill-rule="evenodd">
        <g id="Page-1">
            <g id="Group-3" transform="translate(0.000000, 0.382290)">
                <mask id="mask-2" fill="white">
                    <use xlink:href="#path-1"></use>
                </mask>
                <g id="Clip-2"></g>
                <path d="M36.7681111,28.4054621 C36.177,27.911669 32.4875556,27.0184276 32.4875556,27.0184276 C24.6925556,25.0493241 18.8797778,25.8101517 18.8797778,25.8101517 C14.5992222,26.3469793 11.4675556,27.5552552 11.4675556,27.5552552 L18.1225556,19.4162207 C18.1081111,19.4079448 18.0931111,19.3991172 18.0775556,19.3908414 L10.9036667,27.3538759 C11.6475556,24.9152552 11.4903333,19.2766345 11.4903333,19.2766345 C11.5197778,14.4738759 9.267,9.40187586 9.267,9.40187586 C7.49477778,4.77787586 3.83033333,1.52711724 3.83033333,1.52711724 L6.29311111,1.91442759 C8.51588889,3.55525517 10.7086667,9.96904828 10.7086667,9.96904828 C12.1608889,14.4501517 12.2997778,17.2953931 12.2858889,18.3773241 C12.6047778,8.90863448 6.30866667,0.796082759 6.30866667,0.796082759 L15.0986667,2.51911724 L15.0942222,2.49649655 L4.95588889,0.169324138 L5.88755556,1.33291034 L2.88422222,0.885462069 L-0.000222222222,2.76518621 C-0.000222222222,2.76518621 7.06977778,8.81318621 7.97533333,16.2592552 C8.20144444,18.1185655 9.117,23.3638069 7.43422222,27.4807724 L10.9486667,31.0233931 C10.9486667,31.0233931 14.1931111,28.7188414 22.0336667,28.763531 C22.0336667,28.763531 29.3331111,28.6294621 36.6331111,31.4482207 L39.8758889,20.0650483 L39.5136667,20.0672552 L36.7681111,28.4054621 Z" id="Fill-1" fill="#A6BF36" mask="url(#mask-2)"></path>
            </g>
            <path d="M19.9988889,9.47873103 C17.6305556,10.8883862 18.4966667,16.0343172 18.4966667,16.0343172 C18.7672222,19.4130759 21.065,19.3904552 21.065,19.3904552 C23.5316667,19.602869 23.9383333,17.3441103 24.0038889,16.7173517 C22.765,16.9556966 21.37,17.2900414 20.0805556,17.7501793 C20.0805556,17.7501793 21.1216667,13.8809379 19.9988889,9.47873103" id="Fill-4" fill="#E0DE8F"></path>
            <path d="M30.9103889,19.4353655 C32.1953889,19.3217103 32.8170556,18.1255724 33.1065,16.7815724 C31.5365,16.4488828 29.7203889,16.2127448 27.6815,16.1912276 C27.6815,16.1912276 27.6581667,16.1928828 27.6176111,16.1967448 C28.1631667,20.0836414 30.9103889,19.4353655 30.9103889,19.4353655" id="Fill-6" fill="#E0DE8F"></path>
            <path d="M31.7665,20.5765517 C28.4998333,21.158069 26.2692778,19.2788966 25.4353889,18.137931 C25.0692778,17.6364138 24.7992778,17.1051034 24.6053889,16.6063448 C24.4281667,16.6372414 24.2470556,16.6708966 24.0620556,16.7062069 C24.2009444,17.1376552 24.6620556,18.4011034 25.4881667,19.0626207 C25.4881667,19.0626207 23.3403889,21.4041379 19.9387222,20.5092414 C19.2403889,20.3255172 18.6398333,20.0833103 18.1231667,19.7986207 L11.4670556,27.9376552 C11.4670556,27.9376552 14.5992778,26.7293793 18.8798333,26.1925517 C18.8798333,26.1925517 24.6920556,25.4317241 32.4870556,27.4008276 C32.4870556,27.4008276 36.1770556,28.294069 36.7681667,28.7878621 L39.5142778,20.4491034 L37.0609444,20.4645517 L37.0609444,19.286069 L37.5337222,19.286069 C37.5337222,19.286069 37.8792778,19.2485517 37.8792778,18.8606897 L37.8792778,18.3089655 C37.3237222,18.0612414 36.6592778,17.7953103 35.8887222,17.5371034 C35.0437222,19.0891034 33.5965,20.2504828 31.7665,20.5765517" id="Fill-8" fill="#EDEB94"></path>
            <path d="M12.2857222,18.76 C12.2990556,17.6775172 12.1607222,14.8322759 10.7085,10.3517241 C10.7085,10.3517241 8.51627778,3.93793103 6.29294444,2.29710345 L3.83016667,1.90924138 C3.83016667,1.90924138 7.49461111,5.16 9.26627778,9.78455172 C9.26627778,9.78455172 11.5201667,14.8565517 11.4896111,19.6593103 C11.4896111,19.6593103 11.6479444,25.2973793 10.9040556,27.7365517 L18.0779444,19.7729655 C14.0518333,17.5136552 15.2073889,12.6336552 15.2073889,12.6336552 C16.0418333,9.42813793 18.5968333,8.35393103 19.5629444,8.05655172 C18.9640556,6.40303448 18.0246111,4.7257931 16.5812778,3.192 L15.0979444,2.90124138 L6.3085,1.1782069 C6.3085,1.1782069 12.6046111,9.29075862 12.2857222,18.76" id="Fill-10" fill="#EDEB94"></path>
            <path d="M15.2072222,12.6336552 C15.2072222,12.6336552 14.0516667,17.5136552 18.0777778,19.7729655 C18.0927778,19.7812414 18.1077778,19.790069 18.1227778,19.7983448 C18.64,20.0830345 19.24,20.3257931 19.9388889,20.5095172 C23.3405556,21.4044138 25.4883333,19.0623448 25.4883333,19.0623448 C24.6627778,18.4013793 24.2005556,17.137931 24.0616667,16.705931 C24.0316667,16.6115862 24.0161111,16.5564138 24.0161111,16.5564138 C24.0161111,16.5564138 24.0144444,16.6165517 24.0038889,16.7169655 C23.9383333,17.3442759 23.5316667,19.6030345 21.065,19.3906207 C21.065,19.3906207 18.7666667,19.4132414 18.4966667,16.0344828 C18.4966667,16.0344828 17.6305556,10.8885517 19.9988889,9.47889655 C20.22,9.34703448 20.4683333,9.24717241 20.75,9.18813793 C20.75,9.18813793 23.7683333,8.49406897 24.0388889,12.0742069 C24.0388889,12.0742069 24.1294444,14.2667586 24.1966667,14.9828966 C24.2344444,15.3845517 24.3572222,15.9688276 24.605,16.6066207 C24.7988889,17.1053793 25.0694444,17.6366897 25.4355556,18.1376552 C26.2688889,19.2786207 28.4994444,21.1583448 31.7666667,20.5762759 C33.5966667,20.2507586 35.0438889,19.0888276 35.8894444,17.5368276 C36.5516667,16.318069 36.8433333,14.8582069 36.655,13.3718621 C36.2272222,9.99365517 33.5011111,7.87448276 30.6172222,7.90482759 C27.7333333,7.93517241 27.0727778,8.88965517 26.2988889,9.39668966 C26.2988889,9.39668966 27.4561111,10.5602759 27.7111111,11.8877241 C27.7111111,11.8877241 28.1166667,9.15834483 30.31,9.15834483 C30.31,9.15834483 33.3044444,8.85931034 33.2755556,12.8350345 C33.2755556,12.8350345 33.5011111,14.945931 33.1061111,16.7815172 C32.8166667,18.1255172 32.1955556,19.3216552 30.91,19.4353103 C30.91,19.4353103 28.1627778,20.0835862 27.6177778,16.1966897 C27.5916667,16.0102069 27.5688889,15.8171034 27.5533333,15.6091034 C27.5533333,15.6091034 27.4183333,14.2446897 27.5088889,13.2598621 C27.5088889,13.2598621 26.9,7.28634483 19.9388889,7.95724138 C19.9388889,7.95724138 19.7966667,7.98427586 19.5627778,8.05655172 C18.5977778,8.35337931 16.0416667,9.42758621 15.2072222,12.6336552" id="Fill-12" fill="#A6BF36"></path>
            <path d="M43.9941667,19.2731586 L43.4308333,19.2731586 L43.4308333,20.464331 L48.7058333,20.464331 L48.7058333,19.2759172 L48.2975,19.2759172 C47.8891667,19.2759172 47.6569444,18.8235034 47.6569444,18.8235034 L44.2813889,12.8908138 C44.2813889,12.8908138 46.8158333,10.1388138 47.2213889,9.71398621 C47.6269444,9.2886069 47.9575,9.27371034 47.9575,9.27371034 L48.4830556,9.27371034 L48.4830556,8.05826207 L44.3452778,8.05826207 L44.3452778,9.27757241 L45.0363889,9.27757241 C45.3969444,9.27757241 45.2613889,9.68033103 45.2613889,9.68033103 L41.0713889,14.3412966 L41.0713889,9.68033103 C41.0713889,9.37798621 41.4091667,9.27757241 41.4091667,9.27757241 L41.8819444,9.27757241 L41.8819444,8.05826207 L37.0613889,8.05826207 L37.0613889,9.26929655 L37.5252778,9.26929655 C37.8013889,9.26929655 37.8791667,9.62791724 37.8791667,9.62791724 L37.8791667,18.3087448 L37.8791667,18.860469 C37.8791667,19.248331 37.5341667,19.2864 37.5341667,19.2864 L37.0613889,19.2864 L37.0613889,20.464331 L39.5141667,20.4494345 L39.8758333,20.4472276 L41.8669444,20.4345379 L41.8747222,19.2786759 L41.4691667,19.2786759 C41.0636111,19.2786759 41.0541667,18.8681931 41.0541667,18.8681931 L41.0541667,16.4146759 L42.0397222,15.3801931 C42.0397222,15.3801931 43.6113889,18.0367448 43.9602778,18.6188138 C44.3097222,19.200331 43.9941667,19.2731586 43.9941667,19.2731586" id="Fill-14" fill="#A6BF36"></path>
            <path d="M54.566,19.3160276 L54.1304444,19.3160276 C53.7998889,19.3160276 53.7443333,18.9281655 53.7443333,18.9281655 L53.7443333,9.64706207 C53.7443333,9.37837241 54.1043333,9.26637241 54.1043333,9.26637241 L54.566,9.26637241 L54.566,8.05809655 L49.756,8.05809655 L49.7671111,9.2774069 L50.1726667,9.2774069 C50.5782222,9.2774069 50.541,9.72485517 50.541,9.72485517 L50.541,18.689269 C50.541,19.3309241 50.1504444,19.2856828 50.1504444,19.2856828 L49.756,19.2713379 L49.756,20.4647172 L54.566,20.4647172 L54.566,19.3160276 Z" id="Fill-16" fill="#A6BF36"></path>
            <path d="M56.5993889,18.6749793 C56.5993889,18.6749793 56.6988333,19.2862897 56.2482778,19.2862897 L55.7977222,19.2862897 L55.7977222,20.4647724 L59.1543889,20.4647724 L59.1543889,19.2713931 L58.6966111,19.2713931 C58.6966111,19.2713931 58.3810556,19.2267034 58.3810556,18.883531 L58.3810556,11.1869793 C58.3810556,11.1869793 62.6538333,14.2220138 64.5238333,19.1891862 L64.5238333,20.4647724 L66.2138333,20.4647724 L66.2138333,9.82973793 C66.2138333,9.82973793 66.1610556,9.27746207 66.6571667,9.27746207 L67.1149444,9.27746207 L67.1155,8.10670345 L63.6077222,8.05815172 L63.6077222,9.27028966 L64.1860556,9.26256552 C64.1860556,9.26256552 64.5088333,9.28518621 64.5088333,9.63553103 L64.5088333,12.9844966 C64.5088333,12.9844966 62.8005,10.4410483 60.0293889,8.05815172 L55.6927222,8.05815172 L55.6927222,9.24435862 L56.2838333,9.24435862 C56.2838333,9.24435862 56.5993889,9.27194483 56.5993889,9.63553103 L56.5993889,18.6749793 Z" id="Fill-18" fill="#A6BF36"></path>
            <path d="M75.1730556,13.0140138 L75.1730556,14.2294621 L75.6086111,14.2294621 C76.0441667,14.2294621 75.9991667,14.6173241 75.9991667,14.6173241 L75.9991667,18.1974621 C75.6475,19.2302897 74.6780556,19.3621517 74.2680556,19.4057379 C74.0030556,19.4338759 73.8847222,19.4151172 73.7925,19.4206345 C71.0819444,19.5784276 70.7869444,15.8107034 70.7869444,15.8107034 C70.3813889,8.87497931 74.2341667,9.05373793 74.2341667,9.05373793 C76.6891667,8.69566897 78.2219444,11.6937379 78.2219444,11.6937379 L79.1230556,11.2242207 L77.8391667,7.73346207 L75.0530556,7.98008276 C73.8513889,7.73346207 72.4536111,7.95746207 72.4536111,7.95746207 C67.5208333,9.12104828 67.3397222,13.8642207 67.3397222,13.8642207 C66.9797222,17.0410483 69.6208333,20.3828414 73.4680556,20.6658759 C76.5097222,20.8898759 79.5397222,18.2046345 79.5397222,18.2046345 C79.2352778,17.947531 79.2125,17.6678069 79.2125,17.6678069 L79.2125,14.7370483 C79.2125,14.1886345 79.9786111,14.1886345 79.9786111,14.1886345 L79.9786111,13.0140138 L75.1730556,13.0140138 Z" id="Fill-20" fill="#A6BF36"></path>
            <path d="M48.9062778,27.6974897 C48.3601667,28.8373517 47.7779444,29.7476966 47.1612778,30.4285241 L47.9240556,31.0492138 C48.9029444,30.1901793 49.7423889,29.2572138 50.4418333,28.2514207 L48.9062778,27.6974897 Z" id="Fill-22" fill="#036EB5"></path>
            <path d="M53.6648333,27.6974897 L52.9398333,28.4803862 C53.7342778,29.2384552 54.3576111,30.0500414 54.8087222,30.9156966 L56.0198333,29.7410759 C55.3015,28.9454897 54.5165,28.2641103 53.6648333,27.6974897" id="Fill-24" fill="#036EB5"></path>
            <path d="M55.8485,26.9046621 L54.9996111,26.1692138 L54.5035,26.5896276 L52.6446111,26.5896276 L52.6446111,24.8704552 L51.0712778,24.6514207 L51.0712778,26.5896276 L49.2307222,26.5896276 L49.6023889,24.4699034 C52.0879444,24.4572138 54.0112778,24.2464552 55.3723889,23.8392828 L54.3129444,22.7126621 C53.0479444,23.2599724 51.4146111,23.6070069 49.4112778,23.7537655 L48.2579444,23.5623172 C48.0607222,24.606731 47.8446111,25.8641103 47.6090556,27.3344552 L51.0712778,27.3344552 L51.0712778,29.4734897 C51.0712778,29.6836966 50.9373889,29.7890759 50.6707222,29.7890759 C50.4223889,29.7890759 50.0662778,29.7217655 49.6023889,29.5882483 L49.5735,30.2470069 C50.2985,30.2536276 50.6607222,30.6260414 50.6607222,31.3648 L51.5385,31.3648 C52.2757222,31.3648 52.6446111,30.9763862 52.6446111,30.1995586 L52.6446111,27.3344552 L55.4479444,27.3344552 L55.8485,26.9046621 Z" id="Fill-26" fill="#036EB5"></path>
            <path d="M62.0361111,28.7198345 C61.7344444,28.8654897 61.4266667,28.9979034 61.1122222,29.1181793 L61.1122222,26.2641103 L61.5844444,25.8756966 L60.3427778,24.9272828 L59.6788889,25.6003862 L58.7455556,25.6003862 L58.9377778,26.3970759 L59.7561111,26.3970759 L59.7561111,29.582731 C59.6527778,29.614731 59.5477778,29.642869 59.4383333,29.6682483 L60.1594444,31.146869 C61.0261111,30.5912828 61.7672222,30.0191448 62.3822222,29.4310069 L62.0361111,28.7198345 Z" id="Fill-28" fill="#036EB5"></path>
            <path d="M65.6347778,28.0371862 L67.4242222,28.0371862 L67.8575556,27.6482207 L66.9625556,26.8614621 L67.4053333,26.8046345 L67.4053333,24.083531 L67.8281111,23.6945655 L66.6158889,22.7654621 L65.9814444,23.3530483 L63.4603333,23.3530483 L63.4603333,23.1257379 L62.0747778,22.9646345 L62.0747778,27.0512552 L63.4603333,26.8713931 L63.4603333,26.6153931 L64.0664444,26.6153931 L64.0664444,27.3547034 L61.6031111,27.3547034 L61.7858889,28.0371862 L63.7103333,28.0371862 C63.1514444,28.947531 62.3825556,29.8071172 61.4008889,30.6164966 L61.8631111,31.2134621 C62.6836667,30.7842207 63.4186667,30.2562207 64.0664444,29.6300138 L64.0664444,31.5831172 L65.4136667,31.4600828 L65.4136667,29.3740138 C65.7725556,30.0189793 66.2664444,30.6507034 66.8953333,31.2708414 L67.9053333,30.1331862 C66.9108889,29.5450483 66.1542222,28.8465655 65.6347778,28.0371862 L65.6347778,28.0371862 Z M63.4603333,25.903669 L64.0664444,25.903669 L64.0664444,25.3536 L63.4603333,25.3536 L63.4603333,25.903669 Z M63.4603333,24.6523586 L64.0664444,24.6523586 L64.0664444,24.0360828 L63.4603333,24.0360828 L63.4603333,24.6523586 Z M65.4136667,24.6523586 L66.0197778,24.6523586 L66.0197778,24.0360828 L65.4136667,24.0360828 L65.4136667,24.6523586 Z M65.4136667,25.9042207 L66.0197778,25.9042207 L66.0197778,25.3541517 L65.4136667,25.3541517 L65.4136667,25.9042207 Z M65.4136667,26.6153931 L66.0186667,26.6153931 L66.0186667,26.975669 L66.9142222,26.8713931 L66.4236667,27.3547034 L65.4136667,27.3547034 L65.4136667,26.6153931 Z" id="Fill-30" fill="#036EB5"></path>
            <path d="M59.2171111,23.533131 C59.7554444,23.9375448 60.2337778,24.393269 60.651,24.8980966 L61.6221111,23.8178207 C61.1732222,23.4194759 60.5798889,23.0685793 59.8426667,22.765131 L59.2171111,23.533131 Z" id="Fill-32" fill="#036EB5"></path>
            <path d="M77.2379444,24.288 L75.0979444,24.288 L75.0979444,22.8408276 L73.3873889,22.5997241 L73.3873889,24.288 L71.0023889,24.288 L71.1879444,25.0306207 L73.3873889,25.0306207 L73.3873889,25.5906207 C73.3873889,26.7994483 73.1685,27.7605517 72.7329444,28.4744828 C72.2890556,29.3042759 71.6279444,30.0695172 70.7485,30.7707586 L71.1785,31.3682759 C72.4751667,30.7448276 73.4496111,29.9470345 74.1012778,28.976 C74.7657222,28.0695172 75.0979444,26.9313103 75.0979444,25.5613793 L75.0979444,25.0306207 L77.3262778,25.0306207 C77.3262778,27.4681379 77.2151667,28.985931 76.9946111,29.584 C76.9612778,29.9056552 76.7173889,30.0662069 76.2607222,30.0662069 C75.8635,30.0662069 75.4262778,30.0562759 74.9507222,30.0375172 L74.9218333,30.6162759 C75.8207222,30.6162759 76.2701667,30.918069 76.2701667,31.5227586 L77.1207222,31.5227586 C77.9290556,31.5227586 78.4279444,31.2204138 78.6162778,30.6162759 C78.8568333,29.9795862 78.9846111,28.1627586 78.9973889,25.1657931 L79.4762778,24.7315862 L77.9907222,23.6226207 L77.2379444,24.288 Z" id="Fill-34" fill="#036EB5"></path>
        </g>
    </g>
</svg>