<!-- Generated by IcoMoon.io -->
<svg version="1.1" xmlns="http://www.w3.org/2000/svg" width="1024" height="1024" viewBox="0 0 1024 1024">
<title></title>
<g id="icomoon-ignore">
</g>
<path fill="#fd4343" d="M458.927 768h103.024v-305.951h-103.024v305.951zM512 0c-280.976 0-512 231.024-512 512s231.024 512 512 512c280.976 0 512-231.024 512-512s-231.024-512-512-512v0zM512 920.976c-224.78 0-408.976-184.195-408.976-408.976s184.195-408.976 408.976-408.976c224.78 0 408.976 184.195 408.976 408.976s-184.195 408.976-408.976 408.976v0zM458.927 359.024h103.024v-103.024h-103.024v103.024z"></path>
</svg>
