<!-- Generated by IcoMoon.io -->
<svg version="1.1" xmlns="http://www.w3.org/2000/svg" width="1024" height="1024" viewBox="0 0 1024 1024">
<title></title>
<g id="icomoon-ignore">
</g>
<path fill="#9dbe00" d="M231.024 480.78l231.024 231.024 512-512-71.805-71.805-440.195 440.195-159.22-159.22-71.805 71.805zM920.976 508.878c0 224.78-184.195 408.976-408.976 408.976s-408.976-184.195-408.976-408.976c0-224.78 184.195-408.976 408.976-408.976 40.585 0 78.049 6.244 112.39 15.61l81.171-81.171c-62.439-21.854-128-34.341-193.561-34.341-280.976 0-512 231.024-512 512s231.024 512 512 512c280.976 0 512-231.024 512-512h-103.024v-3.122z"></path>
</svg>
