<!-- Generated by IcoMoon.io -->
<svg version="1.1" xmlns="http://www.w3.org/2000/svg" width="1049" height="1024" viewBox="0 0 1049 1024">
<title></title>
<g id="icomoon-ignore">
</g>
<path fill="#036eb8" d="M548.401 12.488c-181.737 0-344.345 100.503-427.242 256.12l-121.158-123.197v346.897h341.156l-146.665-149.133c66.956-132.923 197.679-223.7 353.91-223.7 213.621 0 392.17 181.553 392.17 398.769s-178.549 398.769-392.17 398.769c-172.172 0-312.461-110.229-369.852-265.846h-108.405c57.391 213.974 251.882 372.833 481.445 372.833 277.389 0 497.387-230.184 497.387-505.756-3.188-275.572-229.563-505.756-500.575-505.756v0zM468.691 278.334v272.33l245.505 149.133 41.449-68.083-210.433-126.439v-223.7h-76.521v-3.242z"></path>
</svg>
