<?xml version="1.0" encoding="UTF-8"?>
<svg width="40px" height="40px" viewBox="0 0 40 40" version="1.1" xmlns="http://www.w3.org/2000/svg" xmlns:xlink="http://www.w3.org/1999/xlink">
    <!-- Generator: Sketch 46.2 (44496) - http://www.bohemiancoding.com/sketch -->
    <title>Slice 2</title>
    <desc>Created with Sketch.</desc>
    <defs>
        <linearGradient x1="50%" y1="0%" x2="50%" y2="100%" id="linearGradient-1">
            <stop stop-color="#06D506" offset="0%"></stop>
            <stop stop-color="#11CE14" offset="100%"></stop>
        </linearGradient>
    </defs>
    <g id="ERP" stroke="none" stroke-width="1" fill="none" fill-rule="evenodd">
        <g id="微信" transform="translate(1.000000, 4.000000)" fill="url(#linearGradient-1)">
            <g id="Group-8" transform="translate(0.000000, 0.800000)">
                <path d="M8.57547862,0.922769045 C5.78034993,1.90123758 3.24781925,3.71895496 1.6844997,6.19511306 C0.266705391,8.4273197 -0.368552071,10.3160683 0.317047995,12.8704582 C1.00303961,15.7062038 3.06855423,18.1304901 5.532042,19.7182033 C5.06831898,21.0267164 4.91453005,22.1521249 4.74852136,23.5618308 C6.62275439,22.8584974 7.33550623,22.3437173 8.88642677,21.5442818 C10.7577639,22.1257586 13.280677,22.3996696 15.2448109,22.3383014 C13.1531022,12.7045751 21.5638382,9.63089864 27.6798218,9.78383981 C26.8231362,6.19511318 24.6962815,3.5225512 21.7142541,1.91924232 C17.7600136,-0.244242026 12.8312108,-0.570355941 8.57547862,0.922769045 Z M11.1621755,7.83606992 C10.9030617,9.04742696 9.23092365,9.6318002 8.25430167,8.81957391 C7.12348916,8.04446774 7.43961047,6.11947352 8.77044068,5.73287529 C10.0727671,5.24434595 11.554102,6.53018192 11.1621755,7.83606992 L11.1621755,7.83606992 Z M20.5914426,7.47554118 C20.6025051,8.87188902 18.6895474,9.74212703 17.6132859,8.79386274 C16.4971993,8.01814049 16.8135878,6.12770586 18.1241291,5.7348262 C19.29602,5.28698162 20.6821553,6.24779225 20.5914426,7.47554118 L20.5914426,7.47554118 Z" id="path11-1"></path>
                <path d="M33.1148145,11.9133987 C29.4612609,10.2143791 24.6705227,10.0961438 20.765887,11.9133987 C18.1829655,13.1155152 16.4513508,15.1049586 15.8471859,17.8682026 C15.3499778,19.9012346 15.8636197,22.156463 16.9728156,23.9308497 C18.6265422,26.5934264 20.7923674,28.0514907 23.8988598,28.5978105 C26.1486718,29.0418432 28.9656165,28.8113271 31.0396553,28.2000654 C32.3473754,28.6958022 33.7867479,29.7629991 35.055866,30.3536722 C34.7302505,29.2878193 34.3828333,28.2262023 34.0068173,27.1754246 C35.4280347,26.1891835 36.7238279,24.965228 37.503048,23.4241953 C38.6616184,21.2787847 38.7309993,18.6220636 37.7096516,16.4151064 C36.7612756,14.3282523 35.2182531,12.8915651 33.1148145,11.9133987 Z M24.667916,17.1084898 C24.3209645,18.1721871 22.7248493,18.4932044 21.957962,17.6811879 C21.1096586,16.933536 21.4396082,15.3652678 22.5510971,15.0322913 C23.7872674,14.5262422 25.2094922,15.9088069 24.667916,17.1084898 L24.667916,17.1084898 Z M32.4572395,17.2551853 C32.0458512,18.2161204 30.6080795,18.4373767 29.8984179,17.6941926 C29.5546293,17.3842179 29.4710051,16.9144694 29.3332472,16.4985181 C29.517059,15.7503452 30.0157074,14.9711613 30.8647427,14.9374538 C32.0397915,14.7766013 33.0706187,16.2039141 32.4572395,17.2551853 L32.4572395,17.2551853 Z" id="path13-81"></path>
            </g>
        </g>
    </g>
</svg>